Exact Audio Copy V0.99 prebeta 4 from 23. January 2008

EAC 抓取日志文件从20. 二月 2013, 11:51

Various / 名人百集 三、四十年代歌坛名人2

使用驱动器  ：TEAC    CD-W540E   Adapter: 3  ID: 0

读取模式     : 保护
使用精确流   : 是
废除音频缓冲 : 是
使用 C2 指针 : 否

读取偏移校正                   : 686
读取 Lead-In 和 Lead-Out       : 否
用静音填充抓取中丢失偏移的采样 : 是
去除首尾静音块                 : 否
在 CRC 计算中使用了空样本      : 是
已用接口                       : Win NT 及 2000 本地 Win32 接口

所用输出格式 : 内部 WAV 函数
样本格式     : 44.100 Hz;16 Bit;立体声


被抓轨 CD 的 TOC

     音轨 |   开始   |   长度   | 起始扇区 | 结尾扇区 
    --------------------------------------------------
       1  |  0:00.32 |  2:59.15 |      32  |   13471  
       2  |  2:59.47 |  2:37.10 |   13472  |   25256  
       3  |  5:36.57 |  3:31.00 |   25257  |   41081  
       4  |  9:07.57 |  2:39.65 |   41082  |   53071  
       5  | 11:47.47 |  3:00.70 |   53072  |   66641  
       6  | 14:48.42 |  2:35.00 |   66642  |   78266  
       7  | 17:23.42 |  2:56.13 |   78267  |   91479  
       8  | 20:19.55 |  2:48.62 |   91480  |  104141  
       9  | 23:08.42 |  2:48.05 |  104142  |  116746  
      10  | 25:56.47 |  3:08.10 |  116747  |  130856  
      11  | 29:04.57 |  3:05.68 |  130857  |  144799  
      12  | 32:10.50 |  3:07.00 |  144800  |  158824  
      13  | 35:17.50 |  2:40.02 |  158825  |  170826  
      14  | 37:57.52 |  2:57.08 |  170827  |  184109  
      15  | 40:54.60 |  2:53.65 |  184110  |  197149  
      16  | 43:48.50 |  2:24.02 |  197150  |  207951  
      17  | 46:12.52 |  2:53.68 |  207952  |  220994  
      18  | 49:06.45 |  2:38.52 |  220995  |  232896  


范围状态及错误

已选择范围

     文件名 D:\行板如歌原抓\名人百集 三、四十年代歌坛名人2.wav

     峰值电平 100.0 %
     范围质量 100.0 %
     复制 CRC 5A77F1B5
     复制成功

没有错误发生

状态报告结尾
